# xmcd
#
# Track frame offsets: 
#        150
#        19205
#        39732
#        57641
#        73382
#        97770
#        110009
#        128226
#        152368
#        181189
#
# Disc length: 2670 seconds
#
# Revision: 6
# Processed by: cddbd v1.5.2PL0 Copyright (c) Steve Scherf et al.
# Submitted via: ExactAudioCopy v0.95b3
#
DISCID=870a6c0a
DTITLE=Jack Bruce - Jet Set Jewel (Remaster)
DYEAR=1978
DGENRE=Progressive Rock
TTITLE0=The Boy
TTITLE1=Head In The Sun
TTITLE2=Neighbour, Neighbour
TTITLE3=Childsong
TTITLE4=Jet Set Jewel
TTITLE5=Please
TTITLE6=Myabe It's Dawn
TTITLE7=Mickey The Fiddler
TTITLE8=She's Moving On
TTITLE9=The Best Is Still To Come
EXTD=YEAR: 1978
EXTT0=
EXTT1=
EXTT2=
EXTT3=
EXTT4=
EXTT5=
EXTT6=
EXTT7=
EXTT8=
EXTT9=
PLAYORDER=
